<?xml version="1.0" standalone="no"?>
<!DOCTYPE svg PUBLIC "-//W3C//DTD SVG 20010904//EN"
 "http://www.w3.org/TR/2001/REC-SVG-20010904/DTD/svg10.dtd">
<svg version="1.0" xmlns="http://www.w3.org/2000/svg"
 width="200.000000pt" height="200.000000pt" viewBox="0 0 200.000000 200.000000"
 preserveAspectRatio="xMidYMid meet">

<g transform="translate(0.000000,200.000000) scale(0.100000,-0.100000)"
fill="#000000" stroke="none">
<path d="M0 1000 l0 -1000 1000 0 1000 0 0 1000 0 1000 -1000 0 -1000 0 0
-1000z m1113 735 c164 -57 287 -179 348 -345 27 -72 30 -168 14 -406 -9 -137
0 -195 46 -284 35 -69 113 -149 123 -125 4 11 15 15 37 13 29 -3 33 -10 90
-137 32 -73 59 -135 59 -137 0 -2 -13 -4 -30 -4 -23 0 -33 7 -45 30 -15 29
-19 30 -79 30 -61 0 -64 -1 -76 -30 -10 -24 -19 -30 -41 -30 -16 0 -29 4 -29
8 0 5 20 53 45 108 l44 99 -36 29 c-79 65 -136 186 -151 318 l-7 63 -34 -53
c-65 -102 -177 -182 -309 -222 -97 -30 -255 -25 -347 10 -217 82 -357 270
-372 500 -10 163 45 307 162 426 157 158 382 211 588 139z m-883 -1285 l0
-140 -30 0 -30 0 0 140 0 140 30 0 30 0 0 -140z m259 116 c25 -23 27 -63 5
-94 -13 -19 -13 -23 0 -28 23 -9 36 -57 22 -85 -18 -38 -53 -49 -153 -49 l-93
0 0 141 0 141 99 -4 c80 -2 103 -7 120 -22z m267 8 c96 -46 99 -200 5 -249
-17 -8 -52 -15 -78 -15 -97 0 -158 62 -150 153 9 101 123 158 223 111z m199
-64 c26 -44 51 -82 55 -85 5 -3 30 33 57 80 42 73 52 84 76 85 l27 0 0 -140 0
-140 -30 0 -29 0 -3 83 -3 82 -38 -67 c-24 -42 -45 -68 -55 -68 -10 0 -33 28
-57 68 l-40 67 -3 -82 c-3 -81 -3 -83 -27 -83 l-25 0 0 140 0 140 24 0 c20 0
33 -15 71 -80z m350 0 c26 -44 50 -82 55 -85 4 -3 30 32 57 78 40 67 54 83 76
85 l27 3 0 -140 0 -141 -30 0 -29 0 -3 81 -3 81 -38 -66 c-24 -40 -46 -66 -55
-66 -10 0 -34 28 -57 68 l-40 67 -3 -82 c-3 -81 -3 -83 -27 -83 l-25 0 0 140
0 140 24 0 c20 0 33 -15 71 -80z"/>
<path d="M925 1666 c-86 -40 -119 -138 -72 -220 74 -132 264 -95 292 55 9 49
-21 118 -65 149 -40 28 -113 36 -155 16z"/>
<path d="M560 1498 c-75 -52 -98 -125 -61 -200 12 -24 33 -52 48 -62 33 -24
113 -33 153 -16 44 18 87 72 95 119 9 53 -25 126 -74 158 -46 31 -116 31 -161
1z"/>
<path d="M1170 1378 c-75 -52 -98 -125 -61 -200 12 -24 33 -52 48 -62 33 -24
113 -33 153 -16 44 18 87 72 95 119 9 53 -25 126 -74 158 -46 31 -116 31 -161
1z"/>
<path d="M883 1296 c-68 -31 -80 -121 -22 -170 77 -65 188 4 163 101 -15 62
-83 94 -141 69z"/>
<path d="M614 1115 c-134 -80 -75 -288 81 -288 156 0 215 210 80 288 -54 32
-108 32 -161 0z"/>
<path d="M1004 1051 c-109 -49 -125 -193 -30 -266 50 -38 108 -43 166 -13 115
59 113 221 -4 277 -52 26 -79 26 -132 2z"/>
<path d="M1653 470 l-21 -50 44 0 c24 0 44 2 44 4 0 8 -39 96 -43 96 -2 0 -13
-22 -24 -50z"/>
<path d="M330 506 c0 -36 0 -36 43 -36 97 0 104 62 8 68 l-51 3 0 -35z"/>
<path d="M330 395 l0 -35 60 0 c47 0 62 4 67 16 12 32 -11 49 -71 52 l-56 3 0
-36z"/>
<path d="M640 527 c-55 -28 -62 -108 -13 -147 37 -29 79 -26 114 9 39 40 39
82 0 122 -32 31 -61 36 -101 16z"/>
</g>
</svg>
